<?xml version="1.0" standalone="no"?>
<!DOCTYPE svg PUBLIC "-//W3C//DTD SVG 20010904//EN"
 "http://www.w3.org/TR/2001/REC-SVG-20010904/DTD/svg10.dtd">
<svg version="1.0" xmlns="http://www.w3.org/2000/svg"
 width="48.000000pt" height="48.000000pt" viewBox="0 0 48.000000 48.000000"
 preserveAspectRatio="xMidYMid meet">

<g transform="translate(0.000000,48.000000) scale(0.100000,-0.100000)"
fill="#000000" stroke="none">
<path d="M147 412 c-14 -15 -17 -42 -17 -149 0 -165 -2 -163 137 -163 135 0
133 -2 133 167 0 165 2 163 -137 163 -84 0 -103 -3 -116 -18z m218 -147 l0
-130 -100 0 -100 0 -3 119 c-1 66 0 126 2 133 4 11 29 13 103 11 l98 -3 0
-130z"/>
<path d="M92 355 c-9 -21 -12 -65 -10 -142 4 -147 12 -156 132 -161 62 -3 91
0 112 12 28 15 25 15 -72 16 -141 0 -138 -4 -144 167 -5 125 -6 135 -18 108z"/>
</g>
</svg>
