<?xml version="1.0" standalone="no"?>
<!DOCTYPE svg PUBLIC "-//W3C//DTD SVG 20010904//EN"
 "http://www.w3.org/TR/2001/REC-SVG-20010904/DTD/svg10.dtd">
<svg version="1.0" xmlns="http://www.w3.org/2000/svg"
 width="24.000000pt" height="24.000000pt" viewBox="0 0 24.000000 24.000000"
 preserveAspectRatio="xMidYMid meet">

<g transform="translate(0.000000,24.000000) scale(0.100000,-0.100000)"
fill="#000000" stroke="none">
<path d="M4 227 c-2 -7 -3 -60 -2 -118 l3 -104 115 0 115 0 0 115 0 115 -113
3 c-87 2 -114 0 -118 -11z m151 -31 c57 -24 72 -81 34 -130 -24 -31 -49 -34
-49 -6 0 11 4 20 10 20 15 0 29 33 23 60 -4 23 -9 25 -54 25 -31 0 -49 -4 -49
-12 0 -6 -3 -18 -6 -26 -3 -9 4 -25 17 -38 l22 -22 -24 6 -24 6 24 -20 c17
-13 19 -19 8 -19 -9 0 -25 12 -36 26 -38 48 -23 105 32 129 40 18 32 17 72 1z"/>
</g>
</svg>
