<?xml version="1.0" encoding="UTF-8"?>
<svg width="20px" height="20px" viewBox="0 0 20 20" version="1.1" xmlns="http://www.w3.org/2000/svg" xmlns:xlink="http://www.w3.org/1999/xlink">
    <title>facebook</title>
    <g id="UI-2.0" stroke="none" stroke-width="1" fill="none" fill-rule="evenodd">
        <g id="Home" transform="translate(-1793.000000, -856.000000)" fill="#FFFFFF" fill-rule="nonzero">
            <g id="Group-11" transform="translate(0.000000, 830.000000)">
                <g id="facebook" transform="translate(1793.000000, 26.000000)">
                    <path d="M17.0703125,0 L2.9296875,0 C1.31439211,0 0,1.31439211 0,2.9296875 L0,17.0703125 C0,18.6856079 1.31439211,20 2.9296875,20 L8.828125,20 L8.828125,12.9296875 L6.484375,12.9296875 L6.484375,9.4140625 L8.828125,9.4140625 L8.828125,7.03125 C8.828125,5.09262086 10.4051209,3.515625 12.34375,3.515625 L15.8984375,3.515625 L15.8984375,7.03125 L12.34375,7.03125 L12.34375,9.4140625 L15.8984375,9.4140625 L15.3125,12.9296875 L12.34375,12.9296875 L12.34375,20 L17.0703125,20 C18.6856079,20 20,18.6856079 20,17.0703125 L20,2.9296875 C20,1.31439211 18.6856079,0 17.0703125,0 Z" id="Path"></path>
                </g>
            </g>
        </g>
    </g>
</svg>